<?xml version="1.0" encoding="utf-8"?>
<!-- Generator: Adobe Illustrator 25.3.1, SVG Export Plug-In . SVG Version: 6.00 Build 0)  -->
<svg version="1.1" id="Layer_1" xmlns="http://www.w3.org/2000/svg" xmlns:xlink="http://www.w3.org/1999/xlink" x="0px" y="0px"
	 viewBox="0 0 1920 1080" style="enable-background:new 0 0 1920 1080;" xml:space="preserve">
<style type="text/css">
	.st0{clip-path:url(#SVGID_2_);}
	.st1{clip-path:url(#SVGID_4_);fill:none;}
	.st2{fill:#74FFFD;}
	.st3{font-family:'ArialMT';}
	.st4{font-size:24px;glyph-orientation-vertical:1;writing-mode:tb;}
	.st5{clip-path:url(#SVGID_6_);fill:#74FFFD;stroke:#74FFFD;stroke-width:5;stroke-miterlimit:10;}
	.st6{clip-path:url(#SVGID_8_);fill:none;stroke:#74FFFD;stroke-width:3;stroke-miterlimit:10;}
	.st7{clip-path:url(#SVGID_10_);fill:none;stroke:#74FFFD;stroke-width:3;stroke-miterlimit:10;}
	.st8{clip-path:url(#SVGID_12_);}
	.st9{clip-path:url(#SVGID_14_);}
	.st10{clip-path:url(#SVGID_16_);fill:#FFFFFF;}
	.st11{clip-path:url(#SVGID_18_);fill:#FFFFFF;}
	.st12{clip-path:url(#SVGID_20_);fill:#FFFFFF;}
	.st13{clip-path:url(#SVGID_22_);fill:#FFFFFF;}
	.st14{clip-path:url(#SVGID_24_);fill:#FFFFFF;}
	.st15{clip-path:url(#SVGID_26_);fill:#FFFFFF;}
	.st16{clip-path:url(#SVGID_28_);fill:#FFFFFF;}
	.st17{clip-path:url(#SVGID_30_);fill:#FFFFFF;}
	.st18{clip-path:url(#SVGID_32_);fill:#FFFFFF;}
	.st19{clip-path:url(#SVGID_34_);fill:#FFFFFF;}
	.st20{clip-path:url(#SVGID_36_);fill:#FFFFFF;}
	.st21{clip-path:url(#SVGID_38_);fill:#FFFFFF;}
	.st22{clip-path:url(#SVGID_40_);fill:#FFFFFF;}
	.st23{clip-path:url(#SVGID_42_);fill:#FFFFFF;}
	.st24{clip-path:url(#SVGID_44_);fill:#FFFFFF;}
	.st25{clip-path:url(#SVGID_46_);fill:#FFFFFF;}
	.st26{clip-path:url(#SVGID_48_);fill:#FFFFFF;}
	.st27{clip-path:url(#SVGID_50_);fill:#FFFFFF;}
	.st28{clip-path:url(#SVGID_52_);fill:#FFFFFF;}
	.st29{clip-path:url(#SVGID_54_);fill:#FFFFFF;}
	.st30{clip-path:url(#SVGID_56_);fill:#FFFFFF;}
	.st31{clip-path:url(#SVGID_58_);fill:#FFFFFF;}
	.st32{clip-path:url(#SVGID_60_);fill:#FFFFFF;}
	.st33{clip-path:url(#SVGID_62_);fill:#FFFFFF;}
	.st34{clip-path:url(#SVGID_64_);fill:#FFFFFF;}
	.st35{clip-path:url(#SVGID_66_);fill:#FFFFFF;}
	.st36{clip-path:url(#SVGID_68_);fill:#FFFFFF;}
	.st37{clip-path:url(#SVGID_70_);fill:#FFFFFF;}
	.st38{clip-path:url(#SVGID_72_);fill:#FFFFFF;}
	.st39{clip-path:url(#SVGID_74_);fill:#FFFFFF;}
	.st40{clip-path:url(#SVGID_76_);fill:#FFFFFF;}
	.st41{clip-path:url(#SVGID_78_);fill:#FFFFFF;}
	.st42{fill:#FFFFFF;}
	.st43{fill:none;stroke:#000000;stroke-miterlimit:10;}
</style>
<g>
	<g>
		<g>
			<defs>
				<rect id="SVGID_1_" x="-0.4" y="-7.5" width="1918.1" height="1086.3"/>
			</defs>
			<clipPath id="SVGID_2_">
				<use xlink:href="#SVGID_1_"  style="overflow:visible;"/>
			</clipPath>
			<g class="st0">
				<rect x="0.5" y="-3.8" width="1919" height="1087.5"/>
				<path d="M1917.6-7.5V1079H-0.4V-7.5H1917.6 M1918.6-8.5H-1.4V1080h1920V-8.5L1918.6-8.5z"/>
			</g>
		</g>
	</g>
	<g>
		<g>
			<defs>
				<rect id="SVGID_3_" x="-0.4" y="-7.5" width="1918.1" height="1086.3"/>
			</defs>
			<clipPath id="SVGID_4_">
				<use xlink:href="#SVGID_3_"  style="overflow:visible;"/>
			</clipPath>
			<polyline class="st1" points="25.6,1027.3 8.6,1027.3 8.6,745.5 25.6,745.5 			"/>
		</g>
	</g>
	<text transform="matrix(1 0 0 1 17.1004 696.5759)" class="st2 st3 st4">      </text>
	<g>
		<g>
			<defs>
				<rect id="SVGID_5_" x="-0.4" y="-7.5" width="1918.1" height="1086.3"/>
			</defs>
			<clipPath id="SVGID_6_">
				<use xlink:href="#SVGID_5_"  style="overflow:visible;"/>
			</clipPath>
			<path class="st5" d="M35.4,540"/>
		</g>
	</g>
	<g>
		<g>
			<defs>
				<rect id="SVGID_7_" x="-0.4" y="-7.5" width="1918.1" height="1086.3"/>
			</defs>
			<clipPath id="SVGID_8_">
				<use xlink:href="#SVGID_7_"  style="overflow:visible;"/>
			</clipPath>
			<path class="st6" d="M16.7,857.3"/>
		</g>
	</g>
	<g>
		<g>
			<defs>
				<rect id="SVGID_9_" x="-0.4" y="-7.5" width="1918.1" height="1086.3"/>
			</defs>
			<clipPath id="SVGID_10_">
				<use xlink:href="#SVGID_9_"  style="overflow:visible;"/>
			</clipPath>
			<path class="st7" d="M16.7,1080"/>
		</g>
	</g>
	<g>
		<g>
			<defs>
				<rect id="SVGID_11_" x="-0.4" y="-7.5" width="1918.1" height="1086.3"/>
			</defs>
			<clipPath id="SVGID_12_">
				<use xlink:href="#SVGID_11_"  style="overflow:visible;"/>
			</clipPath>
			<path class="st8" d="M16.6,685.4"/>
		</g>
	</g>
	<g>
		<g>
			<defs>
				<rect id="SVGID_13_" x="-0.4" y="-7.5" width="1918.1" height="1086.3"/>
			</defs>
			<clipPath id="SVGID_14_">
				<use xlink:href="#SVGID_13_"  style="overflow:visible;"/>
			</clipPath>
			<path class="st9" d="M-9.5,592.4"/>
		</g>
	</g>
	<g>
		<g>
			<defs>
				<rect id="SVGID_15_" x="-0.4" y="-7.5" width="1918.1" height="1086.3"/>
			</defs>
			<clipPath id="SVGID_16_">
				<use xlink:href="#SVGID_15_"  style="overflow:visible;"/>
			</clipPath>
			<polygon class="st10" points="682.2,152.2 681.2,150.3 679.1,149.9 680.5,148.6 680,146.7 681.9,147.7 683.7,146.9 683.5,148.8 
				685.1,150.3 683,150.5 			"/>
		</g>
	</g>
	<g>
		<g>
			<defs>
				<rect id="SVGID_17_" x="-0.4" y="-7.5" width="1918.1" height="1086.3"/>
			</defs>
			<clipPath id="SVGID_18_">
				<use xlink:href="#SVGID_17_"  style="overflow:visible;"/>
			</clipPath>
			<polygon class="st11" points="960.4,621.1 959.2,618.5 956.3,618.1 958.4,616 957.9,613.1 960.4,614.5 963,613.1 962.5,616 
				964.6,618.1 961.7,618.5 			"/>
		</g>
	</g>
	<g>
		<g>
			<defs>
				<rect id="SVGID_19_" x="-0.4" y="-7.5" width="1918.1" height="1086.3"/>
			</defs>
			<clipPath id="SVGID_20_">
				<use xlink:href="#SVGID_19_"  style="overflow:visible;"/>
			</clipPath>
			<polygon class="st12" points="911.4,306.1 910.2,303.5 907.3,303.1 909.4,301 908.9,298.1 911.4,299.5 914,298.1 913.5,301 
				915.6,303.1 912.7,303.5 			"/>
		</g>
	</g>
	<g>
		<g>
			<defs>
				<rect id="SVGID_21_" x="-0.4" y="-7.5" width="1918.1" height="1086.3"/>
			</defs>
			<clipPath id="SVGID_22_">
				<use xlink:href="#SVGID_21_"  style="overflow:visible;"/>
			</clipPath>
			<polygon class="st13" points="750.4,880.1 749.2,877.5 746.3,877.1 748.4,875 747.9,872.1 750.4,873.5 753,872.1 752.5,875 
				754.6,877.1 751.7,877.5 			"/>
		</g>
	</g>
	<g>
		<g>
			<defs>
				<rect id="SVGID_23_" x="-0.4" y="-7.5" width="1918.1" height="1086.3"/>
			</defs>
			<clipPath id="SVGID_24_">
				<use xlink:href="#SVGID_23_"  style="overflow:visible;"/>
			</clipPath>
			<polygon class="st14" points="1091.1,976.4 1090.7,974.4 1088.7,974.7 1090.6,972.5 1090.9,970.1 1092.5,970.8 1094.6,969.1 
				1093.6,971.7 1094.7,973 1092.6,973.9 			"/>
		</g>
	</g>
	<g>
		<g>
			<defs>
				<rect id="SVGID_25_" x="-0.4" y="-7.5" width="1918.1" height="1086.3"/>
			</defs>
			<clipPath id="SVGID_26_">
				<use xlink:href="#SVGID_25_"  style="overflow:visible;"/>
			</clipPath>
			<polygon class="st15" points="142.5,969.1 144.5,966.4 142.5,969.1 146.7,963.3 149.7,959.2 150.3,958.4 154.2,953.1 
				150.3,958.4 149.7,959.2 146.7,963.3 			"/>
		</g>
	</g>
	<g>
		<g>
			<defs>
				<rect id="SVGID_27_" x="-0.4" y="-7.5" width="1918.1" height="1086.3"/>
			</defs>
			<clipPath id="SVGID_28_">
				<use xlink:href="#SVGID_27_"  style="overflow:visible;"/>
			</clipPath>
			<polygon class="st16" points="96.7,53.3 96.7,51.2 94.7,51.9 97,49.1 97.7,46.5 99.1,46.9 101.5,44.7 100.1,47.6 100.9,48.9 
				98.6,50.3 			"/>
		</g>
	</g>
	<g>
		<g>
			<defs>
				<rect id="SVGID_29_" x="-0.4" y="-7.5" width="1918.1" height="1086.3"/>
			</defs>
			<clipPath id="SVGID_30_">
				<use xlink:href="#SVGID_29_"  style="overflow:visible;"/>
			</clipPath>
			<polygon class="st17" points="502.4,54.8 503.2,52.8 501.5,54.1 504.2,50.6 505.6,47.8 506.5,47.7 509.2,44.6 507,48 507.2,48.9 
				504.9,51.2 			"/>
		</g>
	</g>
	<g>
		<g>
			<defs>
				<rect id="SVGID_31_" x="-0.4" y="-7.5" width="1918.1" height="1086.3"/>
			</defs>
			<clipPath id="SVGID_32_">
				<use xlink:href="#SVGID_31_"  style="overflow:visible;"/>
			</clipPath>
			<polygon class="st18" points="99.8,260 99.2,258.6 97.7,258.5 98.9,257.3 98.8,255.7 100.1,256.3 101.6,255.4 101.1,257 
				102.2,258.1 100.6,258.5 			"/>
		</g>
	</g>
	<g>
		<g>
			<defs>
				<rect id="SVGID_33_" x="-0.4" y="-7.5" width="1918.1" height="1086.3"/>
			</defs>
			<clipPath id="SVGID_34_">
				<use xlink:href="#SVGID_33_"  style="overflow:visible;"/>
			</clipPath>
			<polygon class="st19" points="1792.9,26.5 1791.7,23.6 1788.5,23.3 1790.9,20.9 1790.5,17.6 1793.3,19 1796.2,17.4 1795.5,20.6 
				1797.7,22.8 1794.5,23.4 			"/>
		</g>
	</g>
	<g>
		<g>
			<defs>
				<rect id="SVGID_35_" x="-0.4" y="-7.5" width="1918.1" height="1086.3"/>
			</defs>
			<clipPath id="SVGID_36_">
				<use xlink:href="#SVGID_35_"  style="overflow:visible;"/>
			</clipPath>
			<polygon class="st20" points="555.9,929.3 555.6,926.6 552.9,927.1 555.7,923.8 556.3,920.4 558.4,921.1 561.5,918.5 
				559.9,922.2 561.2,924 558.2,925.6 			"/>
		</g>
	</g>
	<g>
		<g>
			<defs>
				<rect id="SVGID_37_" x="-0.4" y="-7.5" width="1918.1" height="1086.3"/>
			</defs>
			<clipPath id="SVGID_38_">
				<use xlink:href="#SVGID_37_"  style="overflow:visible;"/>
			</clipPath>
			<polygon class="st21" points="741.7,467.7 742.1,465.1 739.7,466.3 742.8,462.5 744,459.2 745.5,459.4 748.5,456.2 746.5,460.1 
				747.1,461.4 744.3,463.6 			"/>
		</g>
	</g>
	<g>
		<g>
			<defs>
				<rect id="SVGID_39_" x="-0.4" y="-7.5" width="1918.1" height="1086.3"/>
			</defs>
			<clipPath id="SVGID_40_">
				<use xlink:href="#SVGID_39_"  style="overflow:visible;"/>
			</clipPath>
			<polygon class="st22" points="1804.9,926.7 1803.6,924.2 1800.8,923.7 1802.7,922 1802,919.3 1804.6,920.7 1806.9,919.6 
				1806.6,922.2 1808.7,924.2 1806,924.4 			"/>
		</g>
	</g>
	<g>
		<g>
			<defs>
				<rect id="SVGID_41_" x="-0.4" y="-7.5" width="1918.1" height="1086.3"/>
			</defs>
			<clipPath id="SVGID_42_">
				<use xlink:href="#SVGID_41_"  style="overflow:visible;"/>
			</clipPath>
			<polygon class="st23" points="1800.7,378.5 1806.6,370.4 1800.7,378.5 1813.1,361.4 1821.9,349.3 1823.7,346.8 1835,331.3 
				1823.7,346.8 1821.9,349.3 1813.1,361.4 			"/>
		</g>
	</g>
	<g>
		<g>
			<defs>
				<rect id="SVGID_43_" x="-0.4" y="-7.5" width="1918.1" height="1086.3"/>
			</defs>
			<clipPath id="SVGID_44_">
				<use xlink:href="#SVGID_43_"  style="overflow:visible;"/>
			</clipPath>
			<polygon class="st24" points="758.6,625.1 760.6,622.4 758.6,625.1 762.8,619.3 765.8,615.2 766.4,614.4 770.3,609.1 
				766.4,614.4 765.8,615.2 762.8,619.3 			"/>
		</g>
	</g>
	<g>
		<g>
			<defs>
				<rect id="SVGID_45_" x="-0.4" y="-7.5" width="1918.1" height="1086.3"/>
			</defs>
			<clipPath id="SVGID_46_">
				<use xlink:href="#SVGID_45_"  style="overflow:visible;"/>
			</clipPath>
			<polygon class="st25" points="863.6,968.1 865.6,965.4 863.6,968.1 867.8,962.3 870.8,958.2 871.4,957.4 875.3,952.1 
				871.4,957.4 870.8,958.2 867.8,962.3 			"/>
		</g>
	</g>
	<g>
		<g>
			<defs>
				<rect id="SVGID_47_" x="-0.4" y="-7.5" width="1918.1" height="1086.3"/>
			</defs>
			<clipPath id="SVGID_48_">
				<use xlink:href="#SVGID_47_"  style="overflow:visible;"/>
			</clipPath>
			<polygon class="st26" points="394.6,898.1 396.6,895.4 394.6,898.1 398.8,892.3 401.8,888.2 402.4,887.4 406.3,882.1 
				402.4,887.4 401.8,888.2 398.8,892.3 			"/>
		</g>
	</g>
	<g>
		<g>
			<defs>
				<rect id="SVGID_49_" x="-0.4" y="-7.5" width="1918.1" height="1086.3"/>
			</defs>
			<clipPath id="SVGID_50_">
				<use xlink:href="#SVGID_49_"  style="overflow:visible;"/>
			</clipPath>
			<polygon class="st27" points="1029.5,58.7 1032.1,55.1 1029.5,58.7 1035,51 1039,45.6 1039.8,44.5 1044.8,37.5 1039.8,44.5 
				1039,45.6 1035,51 			"/>
		</g>
	</g>
	<g>
		<g>
			<defs>
				<rect id="SVGID_51_" x="-0.4" y="-7.5" width="1918.1" height="1086.3"/>
			</defs>
			<clipPath id="SVGID_52_">
				<use xlink:href="#SVGID_51_"  style="overflow:visible;"/>
			</clipPath>
			<polygon class="st28" points="1482,252.7 1481.7,249.4 1478.5,250.2 1482,246.1 1482.8,242 1485.2,242.8 1488.9,239.5 
				1486.9,244.1 1488.4,246.1 1484.8,248.2 			"/>
		</g>
	</g>
	<g>
		<g>
			<defs>
				<rect id="SVGID_53_" x="-0.4" y="-7.5" width="1918.1" height="1086.3"/>
			</defs>
			<clipPath id="SVGID_54_">
				<use xlink:href="#SVGID_53_"  style="overflow:visible;"/>
			</clipPath>
			<polygon class="st29" points="1204.3,205.3 1204.4,203 1202.3,203.9 1204.9,200.7 1205.9,197.7 1207.3,198 1210,195.3 
				1208.3,198.7 1209.1,200 1206.5,201.8 			"/>
		</g>
	</g>
	<g>
		<g>
			<defs>
				<rect id="SVGID_55_" x="-0.4" y="-7.5" width="1918.1" height="1086.3"/>
			</defs>
			<clipPath id="SVGID_56_">
				<use xlink:href="#SVGID_55_"  style="overflow:visible;"/>
			</clipPath>
			<polygon class="st30" points="1429.4,112.8 1436.3,103.4 1429.4,112.8 1444,92.8 1454.3,78.6 1456.4,75.7 1469.7,57.4 
				1456.4,75.7 1454.3,78.6 1444,92.8 			"/>
		</g>
	</g>
	<g>
		<g>
			<defs>
				<rect id="SVGID_57_" x="-0.4" y="-7.5" width="1918.1" height="1086.3"/>
			</defs>
			<clipPath id="SVGID_58_">
				<use xlink:href="#SVGID_57_"  style="overflow:visible;"/>
			</clipPath>
			<polygon class="st31" points="1711.8,274 1714.2,268.6 1709.8,272.5 1717.2,262.8 1721.5,255.1 1723.7,254.5 1730.8,245.8 
				1724.7,255.2 1724.8,257.5 1718.9,263.9 			"/>
		</g>
	</g>
	<g>
		<g>
			<defs>
				<rect id="SVGID_59_" x="-0.4" y="-7.5" width="1918.1" height="1086.3"/>
			</defs>
			<clipPath id="SVGID_60_">
				<use xlink:href="#SVGID_59_"  style="overflow:visible;"/>
			</clipPath>
			<polygon class="st32" points="1791.5,635 1794.1,631.4 1791.5,635 1797,627.3 1801,621.9 1801.8,620.8 1806.8,613.8 
				1801.8,620.8 1801,621.9 1797,627.3 			"/>
		</g>
	</g>
	<g>
		<g>
			<defs>
				<rect id="SVGID_61_" x="-0.4" y="-7.5" width="1918.1" height="1086.3"/>
			</defs>
			<clipPath id="SVGID_62_">
				<use xlink:href="#SVGID_61_"  style="overflow:visible;"/>
			</clipPath>
			<polygon class="st33" points="1586.5,507 1592.7,497 1585.2,506 1599.9,486.1 1609.7,471.5 1612.5,469.1 1626.1,451.1 
				1613.2,469.6 1611.8,473 1601,486.8 			"/>
		</g>
	</g>
	<g>
		<g>
			<defs>
				<rect id="SVGID_63_" x="-0.4" y="-7.5" width="1918.1" height="1086.3"/>
			</defs>
			<clipPath id="SVGID_64_">
				<use xlink:href="#SVGID_63_"  style="overflow:visible;"/>
			</clipPath>
			<polygon class="st34" points="73.5,1004.1 79.5,994 71.7,1002.8 86.4,982.9 96,968.1 99.1,965.9 112.8,948 100,966.6 98.9,970.3 
				87.9,983.9 			"/>
		</g>
	</g>
	<g>
		<g>
			<defs>
				<rect id="SVGID_65_" x="-0.4" y="-7.5" width="1918.1" height="1086.3"/>
			</defs>
			<clipPath id="SVGID_66_">
				<use xlink:href="#SVGID_65_"  style="overflow:visible;"/>
			</clipPath>
			<polygon class="st35" points="72,378.3 71.9,377.8 71.4,377.8 71.9,377.2 72,376.5 72.4,376.7 73.1,376.2 72.8,377 73.1,377.3 
				72.5,377.6 			"/>
		</g>
	</g>
	<g>
		<g>
			<defs>
				<rect id="SVGID_67_" x="-0.4" y="-7.5" width="1918.1" height="1086.3"/>
			</defs>
			<clipPath id="SVGID_68_">
				<use xlink:href="#SVGID_67_"  style="overflow:visible;"/>
			</clipPath>
			<polygon class="st36" points="358.3,255.2 356.7,252.5 353.5,251.7 355.5,249.9 354.7,246.9 357.6,248.6 360.3,247.5 360,250.3 
				362.5,252.6 359.4,252.7 			"/>
		</g>
	</g>
	<g>
		<g>
			<defs>
				<rect id="SVGID_69_" x="-0.4" y="-7.5" width="1918.1" height="1086.3"/>
			</defs>
			<clipPath id="SVGID_70_">
				<use xlink:href="#SVGID_69_"  style="overflow:visible;"/>
			</clipPath>
			<polygon class="st37" points="183.4,674.7 185.7,670.3 182.2,673.9 188.5,665.5 192.4,659.1 194,658.3 199.9,650.8 194.5,658.8 
				194.3,660.5 189.5,666.1 			"/>
		</g>
	</g>
	<g>
		<g>
			<defs>
				<rect id="SVGID_71_" x="-0.4" y="-7.5" width="1918.1" height="1086.3"/>
			</defs>
			<clipPath id="SVGID_72_">
				<use xlink:href="#SVGID_71_"  style="overflow:visible;"/>
			</clipPath>
			<polygon class="st38" points="275,487.7 274.5,485.6 272.4,485.8 274.5,483.5 274.7,480.9 276.4,481.6 278.7,479.8 277.7,482.6 
				278.9,484 276.6,485 			"/>
		</g>
	</g>
	<g>
		<g>
			<defs>
				<rect id="SVGID_73_" x="-0.4" y="-7.5" width="1918.1" height="1086.3"/>
			</defs>
			<clipPath id="SVGID_74_">
				<use xlink:href="#SVGID_73_"  style="overflow:visible;"/>
			</clipPath>
			<polygon class="st39" points="301.4,120.1 305.9,112.6 300.1,119.2 311.1,104.4 318.2,93.5 320.5,91.9 330.6,78.6 321.1,92.3 
				320.2,95 312.1,105.2 			"/>
		</g>
	</g>
	<g>
		<g>
			<defs>
				<rect id="SVGID_75_" x="-0.4" y="-7.5" width="1918.1" height="1086.3"/>
			</defs>
			<clipPath id="SVGID_76_">
				<use xlink:href="#SVGID_75_"  style="overflow:visible;"/>
			</clipPath>
			<polygon class="st40" points="517.8,556.3 520,552.6 517.1,555.8 522.5,548.5 525.9,543.1 527.1,542.4 532.1,535.9 527.5,542.6 
				527.1,544 523,548.9 			"/>
		</g>
	</g>
	<g>
		<g>
			<defs>
				<rect id="SVGID_77_" x="-0.4" y="-7.5" width="1918.1" height="1086.3"/>
			</defs>
			<clipPath id="SVGID_78_">
				<use xlink:href="#SVGID_77_"  style="overflow:visible;"/>
			</clipPath>
			<polygon class="st41" points="1411,917.8 1414.2,912.5 1410.1,917.1 1417.8,906.7 1422.8,899 1424.4,897.9 1431.6,888.5 
				1424.9,898.2 1424.3,900.1 1418.5,907.2 			"/>
		</g>
	</g>
	<polyline class="st42" points="981.7,15.2 980.9,16.9 979.8,15.1 	"/>
	<polyline class="st42" points="785.7,8.2 784.9,9.9 783.8,8.1 	"/>
	<polyline class="st42" points="1276.9,24.5 1275.6,21.9 1272.7,21.5 	"/>
	<path class="st43" d="M300,389.9c1.4,0.1,2.2-2,1.2-2.9c-1-0.9-2.9,0.2-2.7,1.5"/>
	<polyline class="st42" points="1152.7,349.2 1153,349.5 1152.4,349.8 	"/>
	<polyline class="st42" points="1350.2,659.3 1350.5,659.6 1349.9,659.9 	"/>
	<polyline class="st42" points="673.2,302.8 673.5,303.1 672.9,303.4 	"/>
	<polyline class="st42" points="935.8,568.5 937.9,570.6 935,571 	"/>
	<polyline class="st42" points="578.8,330.5 580.9,332.6 578,333 	"/>
	<polyline class="st42" points="1026.8,813.5 1028.9,815.6 1026,816 	"/>
	<polyline class="st42" points="368.8,568.5 370.9,570.6 368,571 	"/>
	<polyline class="st42" points="473.8,736.5 475.9,738.6 473,739 	"/>
	<polyline class="st42" points="1363.2,436.6 1365.3,438.7 1362.4,439.1 	"/>
	<polyline class="st42" points="1006.2,100.6 1008.3,102.7 1005.4,103.1 	"/>
	<polyline class="st42" points="1307.2,639.6 1309.3,641.7 1306.4,642.1 	"/>
	<polyline class="st42" points="1615.2,989.6 1617.3,991.7 1614.4,992.1 	"/>
	<polyline class="st42" points="1538.2,709.6 1540.3,711.7 1537.4,712.1 	"/>
	<polyline class="st42" points="1776.2,128.6 1778.3,130.7 1775.4,131.1 	"/>
	<polyline class="st42" points="1097.2,667.6 1099.3,669.7 1096.4,670.1 	"/>
	<polyline class="st42" points="327.2,912.6 329.3,914.7 326.4,915.1 	"/>
	<polyline class="st42" points="796.2,44.6 798.3,46.7 795.4,47.1 	"/>
	<polyline class="st42" points="719.2,1038.6 721.3,1040.7 718.4,1041.1 	"/>
	<polyline class="st42" points="1711.7,688.9 1713.8,691 1710.9,691.4 	"/>
	<polyline class="st42" points="73.7,758.9 75.8,761 72.9,761.4 	"/>
	<polyline class="st42" points="1067.7,366.9 1069.8,369 1066.9,369.4 	"/>
	<line class="st42" x1="1069.8" y1="507.9" x2="1066.9" y2="508.3"/>
	<line class="st42" x1="1069.8" y1="430.9" x2="1066.9" y2="431.3"/>
	<line class="st42" x1="1160.8" y1="437.9" x2="1157.9" y2="438.3"/>
	<line class="st42" x1="1167.8" y1="528.9" x2="1164.9" y2="529.3"/>
	<line class="st42" x1="978.8" y1="472.9" x2="975.9" y2="473.3"/>
	<line class="st42" x1="1020.8" y1="388.9" x2="1017.9" y2="389.3"/>
	<line class="st42" x1="1111.8" y1="479.9" x2="1108.9" y2="480.3"/>
	<polyline class="st42" points="1186.7,471.9 1188.8,474 1185.9,474.4 	"/>
	<polyline class="st42" points="997.7,478.9 999.8,481 996.9,481.4 	"/>
	<polyline class="st42" points="1172.7,345.9 1174.8,348 1171.9,348.4 	"/>
	<polyline class="st42" points="571.7,90.8 572,91.1 571.4,91.4 	"/>
	<polyline class="st42" points="486.7,108.4 488.8,110.5 485.9,110.9 	"/>
	<line class="st42" x1="488.8" y1="249.4" x2="485.9" y2="249.8"/>
	<line class="st42" x1="488.8" y1="172.4" x2="485.9" y2="172.8"/>
	<line class="st42" x1="579.8" y1="179.4" x2="576.9" y2="179.8"/>
	<line class="st42" x1="586.8" y1="270.4" x2="583.9" y2="270.8"/>
	<line class="st42" x1="397.8" y1="214.4" x2="394.9" y2="214.8"/>
	<line class="st42" x1="439.8" y1="130.4" x2="436.9" y2="130.8"/>
	<line class="st42" x1="530.8" y1="221.4" x2="527.9" y2="221.8"/>
	<polyline class="st42" points="605.7,213.4 607.8,215.5 604.9,215.9 	"/>
	<polyline class="st42" points="416.7,220.4 418.8,222.5 415.9,222.9 	"/>
	<polyline class="st42" points="591.7,87.4 593.8,89.5 590.9,89.9 	"/>
	<polyline class="st42" points="221.7,447.8 222,448.1 221.4,448.4 	"/>
	<polyline class="st42" points="136.7,465.4 138.8,467.5 135.9,467.9 	"/>
	<line class="st42" x1="138.8" y1="606.4" x2="135.9" y2="606.8"/>
	<line class="st42" x1="138.8" y1="529.4" x2="135.9" y2="529.8"/>
	<line class="st42" x1="229.8" y1="536.4" x2="226.9" y2="536.8"/>
	<line class="st42" x1="236.8" y1="627.4" x2="233.9" y2="627.8"/>
	<line class="st42" x1="47.8" y1="571.4" x2="44.9" y2="571.8"/>
	<line class="st42" x1="89.8" y1="487.4" x2="86.9" y2="487.8"/>
	<line class="st42" x1="180.8" y1="578.4" x2="177.9" y2="578.8"/>
	<polyline class="st42" points="255.7,570.4 257.8,572.5 254.9,572.9 	"/>
	<polyline class="st42" points="66.7,577.4 68.8,579.5 65.9,579.9 	"/>
	<polyline class="st42" points="241.7,444.4 243.8,446.5 240.9,446.9 	"/>
	<polyline class="st42" points="1691.7,41.8 1692,42.1 1691.4,42.4 	"/>
	<polyline class="st42" points="1606.7,59.4 1608.8,61.5 1605.9,61.9 	"/>
	<line class="st42" x1="1608.8" y1="200.4" x2="1605.9" y2="200.8"/>
	<line class="st42" x1="1608.8" y1="123.4" x2="1605.9" y2="123.8"/>
	<line class="st42" x1="1699.8" y1="130.4" x2="1696.9" y2="130.8"/>
	<line class="st42" x1="1706.8" y1="221.4" x2="1703.9" y2="221.8"/>
	<line class="st42" x1="1517.8" y1="165.4" x2="1514.9" y2="165.8"/>
	<line class="st42" x1="1559.8" y1="81.4" x2="1556.9" y2="81.8"/>
	<line class="st42" x1="1650.8" y1="172.4" x2="1647.9" y2="172.8"/>
	<polyline class="st42" points="1725.7,164.4 1727.8,166.5 1724.9,166.9 	"/>
	<polyline class="st42" points="1536.7,171.4 1538.8,173.5 1535.9,173.9 	"/>
	<polyline class="st42" points="1711.7,38.4 1713.8,40.5 1710.9,40.9 	"/>
	<polyline class="st42" points="1138.7,34.8 1139,35.1 1138.4,35.4 	"/>
	<polyline class="st42" points="1053.7,52.4 1055.8,54.5 1052.9,54.9 	"/>
	<line class="st42" x1="1055.8" y1="193.4" x2="1052.9" y2="193.8"/>
	<line class="st42" x1="1055.8" y1="116.4" x2="1052.9" y2="116.8"/>
	<line class="st42" x1="1146.8" y1="123.4" x2="1143.9" y2="123.8"/>
	<line class="st42" x1="1153.8" y1="214.4" x2="1150.9" y2="214.8"/>
	<line class="st42" x1="964.8" y1="158.4" x2="961.9" y2="158.8"/>
	<line class="st42" x1="1006.8" y1="74.4" x2="1003.9" y2="74.8"/>
	<line class="st42" x1="1097.8" y1="165.4" x2="1094.9" y2="165.8"/>
	<polyline class="st42" points="1172.7,157.4 1174.8,159.5 1171.9,159.9 	"/>
	<polyline class="st42" points="983.7,164.4 985.8,166.5 982.9,166.9 	"/>
	<polyline class="st42" points="1158.7,31.4 1160.8,33.5 1157.9,33.9 	"/>
	<polyline class="st42" points="326.7,734.8 327,735.1 326.4,735.4 	"/>
	<polyline class="st42" points="241.7,752.4 243.8,754.5 240.9,754.9 	"/>
	<line class="st42" x1="243.8" y1="893.4" x2="240.9" y2="893.8"/>
	<line class="st42" x1="243.8" y1="816.4" x2="240.9" y2="816.8"/>
	<line class="st42" x1="334.8" y1="823.4" x2="331.9" y2="823.8"/>
	<line class="st42" x1="341.8" y1="914.4" x2="338.9" y2="914.8"/>
	<line class="st42" x1="152.8" y1="858.4" x2="149.9" y2="858.8"/>
	<line class="st42" x1="194.8" y1="774.4" x2="191.9" y2="774.8"/>
	<line class="st42" x1="285.8" y1="865.4" x2="282.9" y2="865.8"/>
	<polyline class="st42" points="360.7,857.4 362.8,859.5 359.9,859.9 	"/>
	<polyline class="st42" points="171.7,864.4 173.8,866.5 170.9,866.9 	"/>
	<polyline class="st42" points="346.7,731.4 348.8,733.5 345.9,733.9 	"/>
	<polyline class="st42" points="1761.7,783.8 1762,784.1 1761.4,784.4 	"/>
	<polyline class="st42" points="1676.7,801.4 1678.8,803.5 1675.9,803.9 	"/>
	<line class="st42" x1="1678.8" y1="942.4" x2="1675.9" y2="942.8"/>
	<line class="st42" x1="1678.8" y1="865.4" x2="1675.9" y2="865.8"/>
	<line class="st42" x1="1769.8" y1="872.4" x2="1766.9" y2="872.8"/>
	<line class="st42" x1="1776.8" y1="963.4" x2="1773.9" y2="963.8"/>
	<line class="st42" x1="1587.8" y1="907.4" x2="1584.9" y2="907.8"/>
	<line class="st42" x1="1629.8" y1="823.4" x2="1626.9" y2="823.8"/>
	<line class="st42" x1="1720.8" y1="914.4" x2="1717.9" y2="914.8"/>
	<polyline class="st42" points="1795.7,906.4 1797.8,908.5 1794.9,908.9 	"/>
	<polyline class="st42" points="1606.7,913.4 1608.8,915.5 1605.9,915.9 	"/>
	<polyline class="st42" points="1781.7,780.4 1783.8,782.5 1780.9,782.9 	"/>
	<polyline class="st42" points="732.7,629.8 733,630.1 732.4,630.4 	"/>
	<polyline class="st42" points="647.7,647.4 649.8,649.5 646.9,649.9 	"/>
	<line class="st42" x1="649.8" y1="788.4" x2="646.9" y2="788.8"/>
	<line class="st42" x1="649.8" y1="711.4" x2="646.9" y2="711.8"/>
	<line class="st42" x1="740.8" y1="718.4" x2="737.9" y2="718.8"/>
	<line class="st42" x1="747.8" y1="809.4" x2="744.9" y2="809.8"/>
	<line class="st42" x1="558.8" y1="753.4" x2="555.9" y2="753.8"/>
	<line class="st42" x1="600.8" y1="669.4" x2="597.9" y2="669.8"/>
	<line class="st42" x1="691.8" y1="760.4" x2="688.9" y2="760.8"/>
	<polyline class="st42" points="766.7,752.4 768.8,754.5 765.9,754.9 	"/>
	<polyline class="st42" points="577.7,759.4 579.8,761.5 576.9,761.9 	"/>
	<polyline class="st42" points="752.7,626.4 754.8,628.5 751.9,628.9 	"/>
	<polyline class="st42" points="1138.7,741.8 1139,742.1 1138.4,742.4 	"/>
	<polyline class="st42" points="1053.7,759.4 1055.8,761.5 1052.9,761.9 	"/>
	<line class="st42" x1="1055.8" y1="900.4" x2="1052.9" y2="900.8"/>
	<line class="st42" x1="1055.8" y1="823.4" x2="1052.9" y2="823.8"/>
	<line class="st42" x1="1146.8" y1="830.4" x2="1143.9" y2="830.8"/>
	<line class="st42" x1="1153.8" y1="921.4" x2="1150.9" y2="921.8"/>
	<line class="st42" x1="964.8" y1="865.4" x2="961.9" y2="865.8"/>
	<line class="st42" x1="1006.8" y1="781.4" x2="1003.9" y2="781.8"/>
	<line class="st42" x1="1097.8" y1="872.4" x2="1094.9" y2="872.8"/>
	<polyline class="st42" points="1172.7,864.4 1174.8,866.5 1171.9,866.9 	"/>
	<polyline class="st42" points="983.7,871.4 985.8,873.5 982.9,873.9 	"/>
	<polyline class="st42" points="1158.7,738.4 1160.8,740.5 1157.9,740.9 	"/>
	<polyline class="st42" points="403.7,174.8 404,175.1 403.4,175.4 	"/>
	<polyline class="st42" points="318.7,192.4 320.8,194.5 317.9,194.9 	"/>
	<line class="st42" x1="320.8" y1="333.4" x2="317.9" y2="333.8"/>
	<line class="st42" x1="320.8" y1="256.4" x2="317.9" y2="256.8"/>
	<line class="st42" x1="411.8" y1="263.4" x2="408.9" y2="263.8"/>
	<line class="st42" x1="418.8" y1="354.4" x2="415.9" y2="354.8"/>
	<line class="st42" x1="229.8" y1="298.4" x2="226.9" y2="298.8"/>
	<line class="st42" x1="271.8" y1="214.4" x2="268.9" y2="214.8"/>
	<line class="st42" x1="362.8" y1="305.4" x2="359.9" y2="305.8"/>
	<polyline class="st42" points="437.7,297.4 439.8,299.5 436.9,299.9 	"/>
	<polyline class="st42" points="248.7,304.4 250.8,306.5 247.9,306.9 	"/>
	<polyline class="st42" points="423.7,171.4 425.8,173.5 422.9,173.9 	"/>
	<polyline class="st42" points="1495.7,146.8 1496,147.1 1495.4,147.4 	"/>
	<polyline class="st42" points="1410.7,164.4 1412.8,166.5 1409.9,166.9 	"/>
	<line class="st42" x1="1412.8" y1="305.4" x2="1409.9" y2="305.8"/>
	<line class="st42" x1="1412.8" y1="228.4" x2="1409.9" y2="228.8"/>
	<line class="st42" x1="1503.8" y1="235.4" x2="1500.9" y2="235.8"/>
	<line class="st42" x1="1510.8" y1="326.4" x2="1507.9" y2="326.8"/>
	<line class="st42" x1="1321.8" y1="270.4" x2="1318.9" y2="270.8"/>
	<line class="st42" x1="1363.8" y1="186.4" x2="1360.9" y2="186.8"/>
	<line class="st42" x1="1454.8" y1="277.4" x2="1451.9" y2="277.8"/>
	<polyline class="st42" points="1529.7,269.4 1531.8,271.5 1528.9,271.9 	"/>
	<polyline class="st42" points="1340.7,276.4 1342.8,278.5 1339.9,278.9 	"/>
	<polyline class="st42" points="1515.7,143.4 1517.8,145.5 1514.9,145.9 	"/>
</g>
</svg>
